<?xml version="1.0" encoding="UTF-8"?>
<svg id="Layer_13" data-name="Layer 13" xmlns="http://www.w3.org/2000/svg" xmlns:xlink="http://www.w3.org/1999/xlink" viewBox="0 0 512 512">
  <defs>
    <style>
      .cls-1 {
        fill: url(#linear-gradient);
      }

      .cls-1, .cls-2, .cls-3, .cls-4, .cls-5 {
        stroke-width: 0px;
      }

      .cls-2 {
        fill: url(#radial-gradient);
      }

      .cls-3 {
        fill: url(#linear-gradient-2);
      }

      .cls-4 {
        fill: url(#linear-gradient-3);
      }

      .cls-5 {
        fill: #fff1eb;
      }
    </style>
    <radialGradient id="radial-gradient" cx="256" cy="-4948.75" fx="256" fy="-4948.75" r="200.83" gradientTransform="translate(0 2652.6) scale(1 .45)" gradientUnits="userSpaceOnUse">
      <stop offset="0" stop-color="#fe7737" stop-opacity=".6"/>
      <stop offset="1" stop-color="#fe7837" stop-opacity="0"/>
    </radialGradient>
    <linearGradient id="linear-gradient" x1="342.22" y1="423.89" x2="169.49" y2="251.16" gradientUnits="userSpaceOnUse">
      <stop offset="0" stop-color="#fe7838"/>
      <stop offset=".54" stop-color="#fe7636"/>
      <stop offset="1" stop-color="#ffad8a"/>
    </linearGradient>
    <linearGradient id="linear-gradient-2" x1="311.04" y1="222.93" x2="197.62" y2="109.51" gradientUnits="userSpaceOnUse">
      <stop offset="0" stop-color="#e09868"/>
      <stop offset=".51" stop-color="#e09868"/>
      <stop offset="1" stop-color="#f9c4a0"/>
    </linearGradient>
    <linearGradient id="linear-gradient-3" x1="370.35" y1="407.13" x2="308.9" y2="345.69" gradientUnits="userSpaceOnUse">
      <stop offset="0" stop-color="#34344f"/>
      <stop offset=".54" stop-color="#353551"/>
      <stop offset="1" stop-color="#666684"/>
    </linearGradient>
  </defs>
  <path class="cls-5" d="m496.52,129.85c-13.43-49.48-64.89-100.93-114.37-114.37C351.81,7.92,311.17.13,256,0c-55.17.14-95.81,7.92-126.15,15.49C80.38,28.92,28.92,80.37,15.48,129.85,7.92,160.19.13,200.83,0,256c.14,55.17,7.92,95.81,15.49,126.15,13.44,49.48,64.89,100.93,114.37,114.37,30.34,7.57,70.98,15.35,126.15,15.49,55.16-.14,95.81-7.92,126.15-15.49,49.48-13.44,100.93-64.89,114.37-114.37,7.57-30.33,15.35-70.98,15.49-126.15-.14-55.17-7.92-95.81-15.49-126.15Z"/>
  <path class="cls-2" d="m444.68,366.21c-10.54-17.58-50.91-35.87-89.72-40.64-23.8-2.69-55.68-5.46-98.96-5.5-43.28.05-75.17,2.81-98.96,5.5-38.81,4.78-79.18,23.06-89.72,40.64-5.94,10.78-12.04,25.22-12.15,44.83.11,19.6,6.21,34.05,12.15,44.83,10.54,17.58,50.91,35.87,89.72,40.64,23.8,2.69,55.69,5.46,98.96,5.5,43.28-.05,75.16-2.82,98.96-5.5,38.82-4.77,79.18-23.06,89.72-40.64,5.93-10.78,12.04-25.22,12.15-44.83-.11-19.6-6.22-34.05-12.15-44.83Z"/>
  <g id="ADD_PERSON" data-name="ADD PERSON">
    <path class="cls-1" d="m260.51,417.31c-25.75.64-76.35-3.36-92.88-7.29-11.27-2.37-21.87-8.94-29.85-18.07-7.99-9.15-13.02-20.42-14.19-31.82-.01-.12-.02-.23-.04-.35-1.43-13.92-.8-25.63-.8-25.64,0,0-.63-7.55.8-21.25.01-.12.02-.23.04-.35,1.17-11.23,6.23-21.69,14.25-29.72,8.02-8.01,18.66-13.21,29.94-14.42,16.59-1.76,67.07-2.71,92.72-2.71,25.66,0,66.84.95,83.42,2.71,11.29,1.21,21.92,6.41,29.94,14.42,8.02,8.03,13.08,18.5,14.25,29.73.01.11.02.23.04.34,1.43,13.71,1.24,21.22,1.24,21.23,0,0,.19,11.75-1.24,25.69-.01.12-.02.23-.04.35-1.17,11.41-6.21,22.68-14.19,31.83-7.99,9.13-18.58,15.69-29.85,18.06-16.55,3.75-57.81,7.44-83.56,7.26Z"/>
    <circle class="cls-3" cx="254.33" cy="166.22" r="80.2"/>
    <path class="cls-4" d="m387.88,365.24c-1.12-4.37-5.59-8.01-10.02-8.59-1.32-.24-9.27-.57-17.64-.83-.26-8.38-.59-16.33-.83-17.64-.58-4.43-4.22-8.9-8.59-10.02-2.63-.65-6.24-1.3-11.17-1.31-4.93.01-8.53.66-11.17,1.31-4.37,1.12-8.01,5.59-8.59,10.02-.24,1.32-.57,9.27-.83,17.64-8.37.26-16.33.59-17.64.83-4.43.58-8.9,4.23-10.02,8.59-.65,2.63-1.3,6.24-1.31,11.17.01,4.93.66,8.53,1.31,11.17,1.12,4.37,5.59,8.01,10.02,8.59,1.32.24,9.27.57,17.64.83.26,8.37.59,16.33.83,17.64.58,4.43,4.23,8.9,8.59,10.02,2.63.65,6.24,1.3,11.17,1.31,4.93-.01,8.53-.66,11.17-1.31,4.37-1.12,8.01-5.59,8.59-10.02.24-1.32.57-9.27.83-17.64,8.38-.26,16.33-.59,17.64-.83,4.43-.58,8.9-4.22,10.02-8.59.65-2.63,1.3-6.24,1.31-11.17-.01-4.93-.66-8.53-1.31-11.17Z"/>
  </g>
</svg>